<?xml version="1.0" encoding="utf-8"?>
<!-- Generator: Adobe Illustrator 21.0.2, SVG Export Plug-In . SVG Version: 6.00 Build 0)  -->
<svg version="1.1" id="Layer_1" xmlns="http://www.w3.org/2000/svg" xmlns:xlink="http://www.w3.org/1999/xlink" x="0px" y="0px"
	 viewBox="0 0 792 612" style="enable-background:new 0 0 792 612;" xml:space="preserve">
<style type="text/css">
	.st0{fill:#4F489D;stroke:#000000;stroke-miterlimit:10;}
	.st1{fill:#FFFFFF;stroke:#000000;stroke-miterlimit:10;}
</style>
<g id="purple">
	<polygon class="st0" points="402.1,106.8 187.1,479.3 617.2,479.3 	"/>
</g>
<path class="st1" d="M346.4,301.1c0,0,34.6-8,60.1-8s51.4,8,51.4,8s-19.9-18.5-32.7-40.6c-12.7-22-23.1-56-23.1-56s-10.4,34-23.1,56
	C366.4,282.6,346.4,301.1,346.4,301.1"/>
<g>
	<polygon class="st1" points="443.7,381.3 425.5,412.8 431.6,423.4 455.9,381.3 	"/>
	<polygon class="st1" points="425.5,343.9 443.7,375.4 455.9,375.4 431.6,333.2 	"/>
	<polygon class="st1" points="384,340.9 420.4,340.9 426.5,330.3 377.9,330.3 	"/>
	<polygon class="st1" points="360.7,375.4 378.9,343.9 372.7,333.2 348.4,375.4 	"/>
	<polygon class="st1" points="378.9,412.8 360.7,381.3 348.4,381.3 372.7,423.4 	"/>
	<polygon class="st1" points="420.4,415.7 384,415.7 377.9,426.4 426.5,426.4 	"/>
	<path class="st1" d="M418.3,344.5h-32.2h-3.4l-1.7,2.9l-16.1,27.9l-1.7,2.9l1.7,2.9l16.1,27.9l1.7,2.9l3.4,0l32.2,0l3.4,0l1.7-2.9
		l16.1-27.9l1.7-2.9l-1.7-2.9l-16.1-27.9l-1.7-2.9H418.3z M430.2,377.8l-14.5,25.1l-29,0l-14.5-25.1l14.5-25.1h29L430.2,377.8z"/>
</g>
</svg>
