<?xml version="1.0" encoding="utf-8"?>
<!-- Generator: Adobe Illustrator 21.0.2, SVG Export Plug-In . SVG Version: 6.00 Build 0)  -->
<svg version="1.1" id="Layer_1" xmlns="http://www.w3.org/2000/svg" xmlns:xlink="http://www.w3.org/1999/xlink" x="0px" y="0px"
	 viewBox="0 0 792 612" style="enable-background:new 0 0 792 612;" xml:space="preserve">
<style type="text/css">
	.st0{fill:#4F489D;stroke:#000000;stroke-miterlimit:10;}
	.st1{fill:#FFFFFF;stroke:#000000;stroke-miterlimit:10;}
</style>
<g id="purple">
	<polygon class="st0" points="402.1,106.8 187.1,479.3 617.2,479.3 	"/>
</g>
<g>
	<polygon class="st1" points="443.7,391.3 425.5,422.8 431.6,433.4 455.9,391.3 	"/>
	<polygon class="st1" points="425.5,353.9 443.7,385.4 455.9,385.4 431.6,343.2 	"/>
	<polygon class="st1" points="384,350.9 420.4,350.9 426.5,340.3 377.9,340.3 	"/>
	<polygon class="st1" points="360.7,385.4 378.9,353.9 372.7,343.2 348.4,385.4 	"/>
	<polygon class="st1" points="378.9,422.8 360.7,391.3 348.4,391.3 372.7,433.4 	"/>
	<polygon class="st1" points="420.4,425.7 384,425.7 377.9,436.4 426.5,436.4 	"/>
	<path class="st1" d="M418.3,354.5h-32.2h-3.4l-1.7,2.9l-16.1,27.9l-1.7,2.9l1.7,2.9l16.1,27.9l1.7,2.9h3.4l32.2,0l3.4,0l1.7-2.9
		l16.1-27.9l1.7-2.9l-1.7-2.9l-16.1-27.9l-1.7-2.9H418.3z M430.2,387.8l-14.5,25.1h-29l-14.5-25.1l14.5-25.1h29L430.2,387.8z"/>
</g>
<g>
	<polygon class="st1" points="443.7,273.9 425.5,305.5 431.6,316.1 455.9,273.9 	"/>
	<polygon class="st1" points="425.5,236.5 443.7,268 455.9,268 431.6,225.9 	"/>
	<polygon class="st1" points="384,233.6 420.4,233.6 426.5,223 377.9,223 	"/>
	<polygon class="st1" points="360.7,268 378.9,236.5 372.7,225.9 348.4,268 	"/>
	<polygon class="st1" points="378.9,305.5 360.7,273.9 348.4,273.9 372.7,316.1 	"/>
	<polygon class="st1" points="420.4,308.4 384,308.4 377.9,319 426.5,319 	"/>
	<path class="st1" d="M418.3,237.2h-32.2l-3.4,0l-1.7,2.9L364.9,268l-1.7,2.9l1.7,2.9l16.1,27.9l1.7,2.9h3.4l32.2,0l3.4,0l1.7-2.9
		l16.1-27.9l1.7-2.9l-1.7-2.9l-16.1-27.9l-1.7-2.9H418.3z M430.2,270.4l-14.5,25.1h-29l-14.5-25.1l14.5-25.1h29L430.2,270.4z"/>
</g>
</svg>
