<?xml version="1.0" encoding="utf-8"?>
<!-- Generator: Adobe Illustrator 21.0.2, SVG Export Plug-In . SVG Version: 6.00 Build 0)  -->
<svg version="1.1" id="Layer_1" xmlns="http://www.w3.org/2000/svg" xmlns:xlink="http://www.w3.org/1999/xlink" x="0px" y="0px"
	 viewBox="0 0 792 612" style="enable-background:new 0 0 792 612;" xml:space="preserve">
<style type="text/css">
	.st0{fill:#4F489D;stroke:#000000;stroke-miterlimit:10;}
	.st1{fill:#FFFFFF;stroke:#000000;stroke-miterlimit:10;}
</style>
<g id="purple">
	<polygon class="st0" points="400.1,106.8 185.1,479.3 615.2,479.3 	"/>
</g>
<path class="st1" d="M344.4,301.1c0,0,34.6-8,60.1-8s51.4,8,51.4,8s-19.9-18.5-32.7-40.6c-12.7-22-23.1-56-23.1-56s-10.4,34-23.1,56
	C364.3,282.6,344.4,301.1,344.4,301.1"/>
<path class="st1" d="M344.4,419.1c0,0,34.6-8,60.1-8s51.4,8,51.4,8s-19.9-18.5-32.7-40.6c-12.7-22-23.1-56-23.1-56s-10.4,34-23.1,56
	C364.3,400.6,344.4,419.1,344.4,419.1"/>
</svg>
